<svg width="111" height="18" viewBox="0 0 111 18" fill="none" xmlns="http://www.w3.org/2000/svg">
<g clip-path="url(#clip0_2001_14586)">
<path d="M52.3322 1.00635H46.7795C45.0768 1.00635 43.6699 2.26488 43.4478 3.96792L41.856 16.9984H45.1137L45.7059 12.2229H47.9805L50.5183 16.9984H54.2942L51.196 11.1354L54.6643 6.92949C56.9224 4.19001 55.6639 1.00668 52.3322 1.00668V1.00635ZM51.5178 5.5966L49.0745 8.63221C48.9264 8.81745 48.6671 8.92833 48.4451 8.92833H46.1129L46.6683 4.26405H50.9993C51.7028 4.26405 51.9989 4.9675 51.5175 5.5966H51.5178Z" fill="black"/>
<path d="M80.8522 1.00635H75.2995C73.5968 1.00635 72.1899 2.26488 71.9678 3.96792L70.376 16.9984H73.6337L74.2259 12.2229H76.5005L79.0383 16.9984H82.8142L79.7161 11.1354L83.1843 6.92949C85.4425 4.19001 84.1839 1.00668 80.8522 1.00668V1.00635ZM80.0379 5.5966L77.5945 8.63221C77.4464 8.81745 77.1872 8.92833 76.9651 8.92833H74.6329L75.1883 4.26405H79.5193C80.2228 4.26405 80.5189 4.9675 80.0375 5.5966H80.0379Z" fill="#FF2410"/>
<path d="M24.3092 1.00635H18.7566C17.0539 1.00635 15.6469 2.26488 15.4248 3.96792L13.833 16.9984H17.0907L17.683 12.2229H21.0147C21.829 12.2229 22.6434 11.8527 23.1988 11.1493L26.6786 6.92916C29.0847 4.00477 27.641 1.00635 24.3092 1.00635ZM23.5317 5.5966L21.0884 8.63221C20.9403 8.81745 20.681 8.92833 20.459 8.92833H18.0896L18.645 4.26405H23.0132C23.7167 4.26405 24.0128 4.9675 23.5314 5.5966H23.5317Z" fill="black"/>
<path d="M35.748 0.858276C32.3422 0.858276 29.307 3.67179 28.8624 7.22528L28.4183 10.7419C27.9741 14.2957 30.3431 17.1461 33.7488 17.1461C37.1546 17.1461 40.1899 14.2957 40.6344 10.7419L41.0786 7.22528C41.5227 3.67179 39.1534 0.858276 35.748 0.858276ZM37.9689 7.22528L37.5247 10.7791C37.3026 12.4818 35.822 13.8887 34.1562 13.8887C32.4903 13.8887 31.3058 12.4821 31.5279 10.7791L31.9721 7.22528C32.1942 5.48538 33.6748 4.11564 35.3407 4.11564C37.0065 4.11564 38.191 5.48538 37.9689 7.22528Z" fill="black"/>
<path d="M1.80626 5.8187C1.47296 8.59503 3.25003 10.631 6.02636 10.631H7.80311C8.69148 10.631 9.28373 11.2973 9.17285 12.1857C9.06164 13.0741 8.32133 13.7404 7.43295 13.7404H0.843859L0.436523 16.9984H7.09998C9.83946 16.9984 12.0976 14.9624 12.4305 12.2229C12.7639 9.44655 10.9868 7.37335 8.21045 7.37335H6.4337C5.54533 7.37335 4.95308 6.70707 5.06396 5.8187C5.17517 4.93032 5.91548 4.26405 6.80386 4.26405H13.393L13.8003 1.00635H7.21086C4.43453 1.00635 2.13924 3.04237 1.80626 5.8187Z" fill="black"/>
<path d="M101.899 7.37368C102.121 5.63378 103.602 4.26404 105.268 4.26404H109.975L110.382 1.00635H105.675C102.269 1.00635 99.2342 3.81986 98.7897 7.37335L98.3823 10.5939C97.9381 14.1477 100.27 16.9609 103.676 16.998H108.408L108.815 13.7404H104.083C102.418 13.7035 101.27 12.3338 101.492 10.6307L101.899 7.37302V7.37368Z" fill="#FF2410"/>
<path d="M86.3148 3.96788L85.0931 14.0368C84.8711 15.7395 85.9815 16.9983 87.6846 16.9983H95.5694L95.9767 13.7406H88.4249L88.795 10.631H95.1252L95.5325 7.37331H89.2024L89.5725 4.26368H97.1244L97.5317 1.00598H89.6469C87.9442 1.00598 86.5373 2.26451 86.3152 3.96755L86.3148 3.96788Z" fill="#FF2410"/>
<path d="M57.6626 4.26405H62.1788L60.6242 16.9984H63.8819L65.4365 4.26405H69.9527L70.3601 1.00635H58.0699L57.6626 4.26405Z" fill="black"/>
</g>
<defs>
<clipPath id="clip0_2001_14586">
<rect width="109.946" height="16.2882" fill="white" transform="translate(0.436523 0.858276)"/>
</clipPath>
</defs>
</svg>
